<mxfile host="app.diagrams.net" modified="2023-10-14T08:45:47.927Z" agent="Mozilla/5.0 (Windows NT 10.0; Win64; x64) AppleWebKit/537.36 (KHTML, like Gecko) Chrome/117.0.0.0 Safari/537.36 Edg/117.0.2045.47" etag="02yNwpTEQj6udHluOQZf" version="22.0.4" type="github">
  <diagram name="Page-1" id="w68JF28qVqXHtmyjuDGC">
    <mxGraphModel dx="692" dy="688" grid="1" gridSize="10" guides="1" tooltips="1" connect="1" arrows="1" fold="1" page="1" pageScale="1" pageWidth="827" pageHeight="1169" math="0" shadow="0">
      <root>
        <mxCell id="0" />
        <mxCell id="1" parent="0" />
        <mxCell id="VMYcmEjVUv5oUHHwmx6r-28" value="" style="rounded=0;whiteSpace=wrap;html=1;strokeColor=none;" parent="1" vertex="1">
          <mxGeometry width="827" height="1169" as="geometry" />
        </mxCell>
        <mxCell id="VMYcmEjVUv5oUHHwmx6r-14" value="" style="rounded=0;whiteSpace=wrap;html=1;strokeWidth=2;fillColor=none;" parent="1" vertex="1">
          <mxGeometry x="40" y="114" width="740" height="960" as="geometry" />
        </mxCell>
        <mxCell id="VMYcmEjVUv5oUHHwmx6r-1" value="&lt;span style=&quot;font-style: normal; font-variant-ligatures: normal; font-variant-caps: normal; letter-spacing: normal; orphans: 2; text-align: start; text-indent: 0px; text-transform: none; widows: 2; word-spacing: 0px; -webkit-text-stroke-width: 0px; text-decoration-thickness: initial; text-decoration-style: initial; text-decoration-color: initial; float: none; font-size: 25px; display: inline !important;&quot;&gt;&lt;font style=&quot;font-size: 25px;&quot;&gt;AERODROME CHART&lt;/font&gt;&lt;/span&gt;" style="text;html=1;whiteSpace=wrap;labelBackgroundColor=none;fontColor=#000000;fontFamily=Tahoma;fontStyle=0;fontSize=25;" parent="1" vertex="1">
          <mxGeometry x="40" y="75" width="264" height="40" as="geometry" />
        </mxCell>
        <mxCell id="VMYcmEjVUv5oUHHwmx6r-2" value="&lt;font style=&quot;font-size: 25px;&quot;&gt;ZDEL DELAN/TONGYONG&lt;/font&gt;" style="text;html=1;align=center;verticalAlign=middle;resizable=0;points=[];autosize=1;strokeColor=none;fillColor=none;fontSize=25;" parent="1" vertex="1">
          <mxGeometry x="460" y="64" width="330" height="40" as="geometry" />
        </mxCell>
        <mxCell id="VMYcmEjVUv5oUHHwmx6r-3" value="X-705 Z-4970                   ELEV 1.0m " style="text;whiteSpace=wrap;fontSize=15;verticalAlign=middle;" parent="1" vertex="1">
          <mxGeometry x="529" y="94" width="261" height="20" as="geometry" />
        </mxCell>
        <mxCell id="VMYcmEjVUv5oUHHwmx6r-5" value="TWR 118.30" style="text;html=1;align=center;verticalAlign=middle;resizable=0;points=[];autosize=1;strokeColor=none;fillColor=none;fontSize=14;" parent="1" vertex="1">
          <mxGeometry x="329" y="71" width="100" height="30" as="geometry" />
        </mxCell>
        <mxCell id="VMYcmEjVUv5oUHHwmx6r-6" value="GND 121.75 for delivery" style="text;html=1;align=center;verticalAlign=middle;resizable=0;points=[];autosize=1;strokeColor=none;fillColor=none;fontSize=14;" parent="1" vertex="1">
          <mxGeometry x="329" y="88" width="170" height="30" as="geometry" />
        </mxCell>
        <mxCell id="VMYcmEjVUv5oUHHwmx6r-7" value="BEARINGS ARE MAGNETIC.&#xa;ALTITUDES,   DISTANCES,&#xa;ELEVATIONS AND HEIGHTS&#xa;IN METERS." style="text;fontColor=#000000;verticalAlign=top;spacing=0;spacingTop=0;spacingBottom=0;horizontal=1;strokeColor=default;fontFamily=Helvetica;fontSize=9;spacingLeft=1;strokeWidth=0.5;perimeterSpacing=0;" parent="1" vertex="1">
          <mxGeometry x="41" y="115" width="125" height="50" as="geometry" />
        </mxCell>
        <mxCell id="VMYcmEjVUv5oUHHwmx6r-8" value="&lt;font style=&quot;font-size: 17px;&quot;&gt;RWY&lt;/font&gt;" style="rounded=0;whiteSpace=wrap;html=1;fillColor=none;fontSize=17;strokeWidth=0.5;" parent="1" vertex="1">
          <mxGeometry x="489" y="115" width="70" height="20" as="geometry" />
        </mxCell>
        <mxCell id="VMYcmEjVUv5oUHHwmx6r-9" value="18L/18C/18R" style="rounded=0;whiteSpace=wrap;html=1;fontSize=17;strokeWidth=0.5;" parent="1" vertex="1">
          <mxGeometry x="559" y="115" width="110" height="20" as="geometry" />
        </mxCell>
        <mxCell id="VMYcmEjVUv5oUHHwmx6r-10" value="Direction" style="rounded=0;whiteSpace=wrap;html=1;fillColor=none;fontSize=17;strokeWidth=0.5;" parent="1" vertex="1">
          <mxGeometry x="489" y="135" width="70" height="20" as="geometry" />
        </mxCell>
        <mxCell id="VMYcmEjVUv5oUHHwmx6r-11" value="36L/36C/36R" style="rounded=0;whiteSpace=wrap;html=1;fontSize=17;strokeWidth=0.5;" parent="1" vertex="1">
          <mxGeometry x="669" y="115" width="110" height="20" as="geometry" />
        </mxCell>
        <mxCell id="VMYcmEjVUv5oUHHwmx6r-12" value="180°" style="rounded=0;whiteSpace=wrap;html=1;fontSize=17;strokeWidth=0.5;" parent="1" vertex="1">
          <mxGeometry x="559" y="135" width="110" height="20" as="geometry" />
        </mxCell>
        <mxCell id="VMYcmEjVUv5oUHHwmx6r-13" value="360°" style="rounded=0;whiteSpace=wrap;html=1;fontSize=17;strokeWidth=0.5;" parent="1" vertex="1">
          <mxGeometry x="669" y="135" width="110" height="20" as="geometry" />
        </mxCell>
        <mxCell id="VMYcmEjVUv5oUHHwmx6r-16" value="" style="endArrow=none;html=1;rounded=0;" parent="1" edge="1">
          <mxGeometry width="50" height="50" relative="1" as="geometry">
            <mxPoint x="39" y="1090" as="sourcePoint" />
            <mxPoint x="781" y="1090" as="targetPoint" />
          </mxGeometry>
        </mxCell>
        <mxCell id="VMYcmEjVUv5oUHHwmx6r-19" value="&lt;font style=&quot;font-size: 15px;&quot;&gt;&amp;nbsp;重庆航空总局CAACQ&lt;/font&gt;" style="text;html=1;align=center;verticalAlign=middle;resizable=0;points=[];autosize=1;strokeColor=none;fillColor=none;spacingTop=2;fontSize=15;" parent="1" vertex="1">
          <mxGeometry x="370" y="1084" width="170" height="30" as="geometry" />
        </mxCell>
        <mxCell id="VMYcmEjVUv5oUHHwmx6r-22" value="ZDEL AD2.24 - A1" style="text;html=1;align=center;verticalAlign=middle;resizable=0;points=[];autosize=1;strokeColor=none;fillColor=none;fontSize=15;" parent="1" vertex="1">
          <mxGeometry x="643" y="1085" width="150" height="30" as="geometry" />
        </mxCell>
        <mxCell id="VMYcmEjVUv5oUHHwmx6r-26" value="&lt;font style=&quot;font-size: 15px;&quot;&gt;2023-10-14 CQ0000000001&lt;/font&gt;" style="text;html=1;align=center;verticalAlign=middle;resizable=0;points=[];autosize=1;strokeColor=none;fillColor=none;fontSize=15;" parent="1" vertex="1">
          <mxGeometry x="27" y="1084" width="210" height="30" as="geometry" />
        </mxCell>
        <mxCell id="R5UcSwaJLeWS2mNkYIwA-1" value="" style="rounded=0;whiteSpace=wrap;html=1;strokeColor=none;" vertex="1" parent="1">
          <mxGeometry width="827" height="1169" as="geometry" />
        </mxCell>
        <mxCell id="R5UcSwaJLeWS2mNkYIwA-2" value="" style="rounded=0;whiteSpace=wrap;html=1;strokeWidth=2;fillColor=none;" vertex="1" parent="1">
          <mxGeometry x="40" y="114" width="740" height="960" as="geometry" />
        </mxCell>
        <mxCell id="R5UcSwaJLeWS2mNkYIwA-3" value="&lt;span style=&quot;font-style: normal; font-variant-ligatures: normal; font-variant-caps: normal; letter-spacing: normal; orphans: 2; text-align: start; text-indent: 0px; text-transform: none; widows: 2; word-spacing: 0px; -webkit-text-stroke-width: 0px; text-decoration-thickness: initial; text-decoration-style: initial; text-decoration-color: initial; float: none; font-size: 25px; display: inline !important;&quot;&gt;&lt;font style=&quot;font-size: 25px;&quot;&gt;AERODROME CHART&lt;/font&gt;&lt;/span&gt;" style="text;html=1;whiteSpace=wrap;labelBackgroundColor=none;fontColor=#000000;fontFamily=Tahoma;fontStyle=0;fontSize=25;" vertex="1" parent="1">
          <mxGeometry x="40" y="75" width="264" height="40" as="geometry" />
        </mxCell>
        <mxCell id="R5UcSwaJLeWS2mNkYIwA-4" value="&lt;font style=&quot;font-size: 25px;&quot;&gt;ZDEL DELAN/TONGYONG&lt;/font&gt;" style="text;html=1;align=center;verticalAlign=middle;resizable=0;points=[];autosize=1;strokeColor=none;fillColor=none;fontSize=25;" vertex="1" parent="1">
          <mxGeometry x="460" y="64" width="330" height="40" as="geometry" />
        </mxCell>
        <mxCell id="R5UcSwaJLeWS2mNkYIwA-5" value="X-705 Z-4970                   ELEV 1.0m " style="text;whiteSpace=wrap;fontSize=15;verticalAlign=middle;" vertex="1" parent="1">
          <mxGeometry x="529" y="94" width="261" height="20" as="geometry" />
        </mxCell>
        <mxCell id="R5UcSwaJLeWS2mNkYIwA-6" value="TWR 118.30" style="text;html=1;align=center;verticalAlign=middle;resizable=0;points=[];autosize=1;strokeColor=none;fillColor=none;fontSize=14;" vertex="1" parent="1">
          <mxGeometry x="329" y="71" width="100" height="30" as="geometry" />
        </mxCell>
        <mxCell id="R5UcSwaJLeWS2mNkYIwA-7" value="GND 121.75 for delivery" style="text;html=1;align=center;verticalAlign=middle;resizable=0;points=[];autosize=1;strokeColor=none;fillColor=none;fontSize=14;" vertex="1" parent="1">
          <mxGeometry x="329" y="88" width="170" height="30" as="geometry" />
        </mxCell>
        <mxCell id="R5UcSwaJLeWS2mNkYIwA-8" value="BEARINGS ARE MAGNETIC.&#xa;ALTITUDES,   DISTANCES,&#xa;ELEVATIONS AND HEIGHTS&#xa;IN METERS." style="text;fontColor=#000000;verticalAlign=top;spacing=0;spacingTop=0;spacingBottom=0;horizontal=1;strokeColor=default;fontFamily=Helvetica;fontSize=9;spacingLeft=1;strokeWidth=0.5;perimeterSpacing=0;" vertex="1" parent="1">
          <mxGeometry x="41" y="115" width="125" height="50" as="geometry" />
        </mxCell>
        <mxCell id="R5UcSwaJLeWS2mNkYIwA-9" value="&lt;font style=&quot;font-size: 17px;&quot;&gt;RWY&lt;/font&gt;" style="rounded=0;whiteSpace=wrap;html=1;fillColor=none;fontSize=17;strokeWidth=0.5;" vertex="1" parent="1">
          <mxGeometry x="489" y="115" width="70" height="25" as="geometry" />
        </mxCell>
        <mxCell id="R5UcSwaJLeWS2mNkYIwA-10" value="18L/18C/18R" style="rounded=0;whiteSpace=wrap;html=1;fontSize=17;strokeWidth=0.5;" vertex="1" parent="1">
          <mxGeometry x="559" y="115" width="110" height="25" as="geometry" />
        </mxCell>
        <mxCell id="R5UcSwaJLeWS2mNkYIwA-11" value="Direction" style="rounded=0;whiteSpace=wrap;html=1;fillColor=none;fontSize=17;strokeWidth=0.5;" vertex="1" parent="1">
          <mxGeometry x="489" y="140" width="70" height="25" as="geometry" />
        </mxCell>
        <mxCell id="R5UcSwaJLeWS2mNkYIwA-12" value="36L/36C/36R" style="rounded=0;whiteSpace=wrap;html=1;fontSize=17;strokeWidth=0.5;" vertex="1" parent="1">
          <mxGeometry x="669" y="115" width="110" height="25" as="geometry" />
        </mxCell>
        <mxCell id="R5UcSwaJLeWS2mNkYIwA-13" value="180°" style="rounded=0;whiteSpace=wrap;html=1;fontSize=17;strokeWidth=0.5;" vertex="1" parent="1">
          <mxGeometry x="559" y="140" width="110" height="25" as="geometry" />
        </mxCell>
        <mxCell id="R5UcSwaJLeWS2mNkYIwA-14" value="360°" style="rounded=0;whiteSpace=wrap;html=1;fontSize=17;strokeWidth=0.5;" vertex="1" parent="1">
          <mxGeometry x="669" y="140" width="110" height="25" as="geometry" />
        </mxCell>
        <mxCell id="R5UcSwaJLeWS2mNkYIwA-15" value="" style="endArrow=none;html=1;rounded=0;" edge="1" parent="1">
          <mxGeometry width="50" height="50" relative="1" as="geometry">
            <mxPoint x="39" y="1090" as="sourcePoint" />
            <mxPoint x="781" y="1090" as="targetPoint" />
          </mxGeometry>
        </mxCell>
        <mxCell id="R5UcSwaJLeWS2mNkYIwA-16" value="&lt;font style=&quot;font-size: 15px;&quot;&gt;&amp;nbsp;重庆航空总局CAACQ&lt;/font&gt;" style="text;html=1;align=center;verticalAlign=middle;resizable=0;points=[];autosize=1;strokeColor=none;fillColor=none;spacingTop=2;fontSize=15;" vertex="1" parent="1">
          <mxGeometry x="370" y="1084" width="170" height="30" as="geometry" />
        </mxCell>
        <mxCell id="R5UcSwaJLeWS2mNkYIwA-17" value="ZDEL AD2.24 - A1" style="text;html=1;align=center;verticalAlign=middle;resizable=0;points=[];autosize=1;strokeColor=none;fillColor=none;fontSize=15;" vertex="1" parent="1">
          <mxGeometry x="643" y="1085" width="150" height="30" as="geometry" />
        </mxCell>
        <mxCell id="R5UcSwaJLeWS2mNkYIwA-18" value="&lt;font style=&quot;font-size: 15px;&quot;&gt;2023-10-14 CQ0000000001&lt;/font&gt;" style="text;html=1;align=center;verticalAlign=middle;resizable=0;points=[];autosize=1;strokeColor=none;fillColor=none;fontSize=15;" vertex="1" parent="1">
          <mxGeometry x="27" y="1084" width="210" height="30" as="geometry" />
        </mxCell>
      </root>
    </mxGraphModel>
  </diagram>
</mxfile>
